<svg width="52" height="51" viewBox="0 0 52 51" fill="none" xmlns="http://www.w3.org/2000/svg">
<path d="M38.8281 11.7188C39.4753 11.7188 40 11.1941 40 10.5469V5.85938C40 5.21219 39.4753 4.6875 38.8281 4.6875H32.1875V1.17188C32.1875 0.524687 31.6628 0 31.0156 0H26.3281C25.6809 0 25.1562 0.524687 25.1562 1.17188V4.6875H23.0469C22.7934 4.6875 22.5466 4.76977 22.3438 4.92188L19.2188 7.26562C18.9237 7.48695 18.75 7.83422 18.75 8.20312C18.75 8.57203 18.9237 8.9193 19.2188 9.14062L22.3438 11.4844C22.5466 11.6365 22.7934 11.7188 23.0469 11.7188H25.1562V14.0625H20.8324C20.0827 11.3168 17.7924 9.20055 14.952 8.70461C15.6199 7.79781 16.0156 6.67883 16.0156 5.46875C16.0156 2.4532 13.5624 0 10.5469 0C7.53133 0 5.07812 2.4532 5.07812 5.46875C5.07812 6.67883 5.47383 7.79781 6.14172 8.70461C2.65719 9.31297 0 12.3597 0 16.0156V24.6094C0 26.5479 1.57711 28.125 3.51562 28.125C3.92648 28.125 4.3207 28.0535 4.6875 27.9234V36.4844C4.6875 38.4229 6.26461 40 8.20312 40C9.10289 40 9.92437 39.6598 10.5469 39.102C11.1694 39.6598 11.9909 40 12.8906 40C14.8291 40 16.4062 38.4229 16.4062 36.4844V27.9234C16.773 28.0535 17.1673 28.125 17.5781 28.125C19.5166 28.125 21.0938 26.5479 21.0938 24.6094V21.0938H25.1562V38.8281C25.1562 39.4753 25.6809 40 26.3281 40H31.0156C31.6628 40 32.1875 39.4753 32.1875 38.8281V21.0938H35.7031C35.9566 21.0938 36.2034 21.0115 36.4062 20.8594L39.5312 18.5156C39.8263 18.2943 40 17.947 40 17.5781C40 17.2092 39.8263 16.862 39.5312 16.6406L36.4062 14.2969C36.2034 14.1448 35.9566 14.0625 35.7031 14.0625H32.1875V11.7188H38.8281ZM27.5 2.34375H29.8438V4.6875H27.5V2.34375ZM21.875 8.20312L23.4375 7.03125H37.6562V9.375H23.4375L21.875 8.20312ZM10.5469 2.34375C12.27 2.34375 13.6719 3.74563 13.6719 5.46875C13.6719 7.19187 12.27 8.59375 10.5469 8.59375C8.82375 8.59375 7.42188 7.19187 7.42188 5.46875C7.42188 3.74563 8.82375 2.34375 10.5469 2.34375ZM18.75 24.6094C18.75 25.2555 18.2243 25.7812 17.5781 25.7812C16.932 25.7812 16.4062 25.2555 16.4062 24.6094V16.276C16.4062 15.6288 15.8816 15.1041 15.2344 15.1041C14.5872 15.1041 14.0625 15.6288 14.0625 16.276V24.6094C14.0625 24.6443 14.0641 24.6788 14.0652 24.7134C14.0644 24.7308 14.0625 24.748 14.0625 24.7656V36.4844C14.0625 37.1305 13.5368 37.6562 12.8906 37.6562C12.2445 37.6562 11.7188 37.1305 11.7188 36.4844V24.7656C11.7188 24.1184 11.1941 23.5938 10.5469 23.5938C9.89969 23.5938 9.375 24.1184 9.375 24.7656V36.4844C9.375 37.1305 8.8493 37.6562 8.20312 37.6562C7.55695 37.6562 7.03125 37.1305 7.03125 36.4844V16.276C7.03125 15.6288 6.50656 15.1041 5.85938 15.1041C5.21219 15.1041 4.6875 15.6288 4.6875 16.276V24.6094C4.6875 25.2555 4.1618 25.7812 3.51562 25.7812C2.86945 25.7812 2.34375 25.2555 2.34375 24.6094V16.0156C2.34375 13.2155 4.6218 10.9375 7.42188 10.9375H13.6719C16.472 10.9375 18.75 13.2155 18.75 16.0156V24.6094ZM29.8438 37.6562H27.5V21.0938H29.8438V37.6562ZM36.875 17.5781L35.3125 18.75H21.0938V16.4062H35.3125L36.875 17.5781ZM29.8438 14.0625H27.5V11.7188H29.8438V14.0625Z" fill="black"/>
<path d="M37.9 37.4935L36.5 38.969L41 43.7116L51 33.1725L49.6 31.697L41 40.7606L37.9 37.4935ZM50 39.4959C50 44.1331 46.4 47.9272 42 47.9272C37.6 47.9272 34 44.1331 34 39.4959C34 34.8587 37.6 31.0647 42 31.0647C42.8 31.0647 43.5 31.1701 44.2 31.3808L45.8 29.6946C44.6 29.273 43.3 28.9568 42 28.9568C36.5 28.9568 32 33.6994 32 39.4959C32 45.2924 36.5 50.035 42 50.035C47.5 50.035 52 45.2924 52 39.4959H50Z" fill="#0DB894"/>
</svg>
