<svg width="470" height="150" viewBox="0 0 470 150" fill="none" xmlns="http://www.w3.org/2000/svg">
<path d="M91.2782 97.4218L84.295 104.405C83.3773 105.323 82.858 106.568 82.858 107.869V140.082H68.6798V101.965C68.6798 100.664 68.1656 99.4185 67.2479 98.5008L58.7219 89.9748L60.2698 88.4269L66.3151 94.4672C67.7118 95.8689 69.8193 96.2874 71.6496 95.5311C73.4798 94.7697 74.6748 92.9848 74.6748 91.0033V81.8571H76.8681V96.9075C76.8681 98.889 78.058 100.674 79.8883 101.435C81.7185 102.192 83.8261 101.773 85.2277 100.371L89.7252 95.8739L91.2782 97.4218Z" fill="#C7A488"/>
<path d="M134.75 60.4384C134.75 67.2754 131.72 73.6939 126.441 78.0502C124.949 79.2754 124.323 81.267 124.833 83.1275C125.286 84.7712 125.513 86.4553 125.513 88.1494C125.513 98.541 117.058 106.996 106.666 106.996H95.5537L101.665 100.886C102.582 99.9679 103.102 98.7225 103.102 97.4216C103.102 96.1258 102.582 94.8805 101.665 93.9578L93.189 85.4821C91.4041 83.6973 88.5857 83.5763 86.6596 85.1242V76.9611C86.6596 74.2536 84.4663 72.0603 81.7638 72.0603H69.7789C67.0714 72.0603 64.8781 74.2536 64.8781 76.9611V79.1796L63.7336 78.0351C62.8159 77.1174 61.5705 76.6032 60.2697 76.6032C58.9739 76.6032 57.7285 77.1174 56.8109 78.0351L48.3302 86.5107C46.4193 88.4267 46.4193 91.5275 48.3302 93.4385L58.8832 103.991V106.996H43.3336C32.9369 106.996 24.4815 98.541 24.4815 88.1494C24.4815 86.4553 24.7134 84.7712 25.1622 83.1275C25.6764 81.267 25.0462 79.2754 23.5588 78.0502C18.2748 73.6939 15.2445 67.2754 15.2445 60.4384C15.2445 47.8637 25.4798 37.6284 38.0546 37.6284C38.3773 37.6284 38.6899 37.6435 39.0075 37.6586C41.3319 37.7443 43.384 36.2216 43.9588 33.9779C47.589 19.8149 60.3554 9.92249 74.9974 9.92249C89.6445 9.92249 102.406 19.8149 106.041 33.9779C106.616 36.2216 108.683 37.7443 110.992 37.6586C111.305 37.6435 111.623 37.6284 111.94 37.6284C124.52 37.6284 134.75 47.8637 134.75 60.4384Z" fill="#7AC1A3"/>
<path d="M144.547 60.4386C144.547 69.1865 141.078 77.4554 134.937 83.5562C135.184 85.0739 135.31 86.6117 135.31 88.1495C135.31 103.941 122.458 116.793 106.666 116.793H92.6546V144.978C92.6546 147.686 90.4613 149.874 87.7588 149.874H63.784C61.0765 149.874 58.8832 147.686 58.8832 144.978V116.793H43.3336C27.537 116.793 14.6849 103.941 14.6849 88.1495C14.6849 86.6117 14.8109 85.0739 15.058 83.5562C8.91681 77.4554 5.45294 69.1865 5.45294 60.4386C5.45294 43.2957 18.7487 29.2033 35.574 27.9277C41.4429 11.3848 57.1538 0.125977 74.9975 0.125977C92.8462 0.125977 108.557 11.3848 114.426 27.9277C131.246 29.2033 144.547 43.2957 144.547 60.4386ZM126.441 78.0503C131.72 73.694 134.75 67.2756 134.75 60.4386C134.75 47.8638 124.52 37.6285 111.94 37.6285C111.623 37.6285 111.305 37.6436 110.992 37.6587C108.683 37.7445 106.616 36.2218 106.041 33.9781C102.406 19.8151 89.6445 9.92261 74.9975 9.92261C60.3555 9.92261 47.5891 19.8151 43.9588 33.9781C43.384 36.2218 41.3319 37.7445 39.0076 37.6587C38.6899 37.6436 38.3773 37.6285 38.0546 37.6285C25.4798 37.6285 15.2445 47.8638 15.2445 60.4386C15.2445 67.2756 18.2748 73.694 23.5588 78.0503C25.0462 79.2756 25.6765 81.2671 25.1622 83.1276C24.7134 84.7713 24.4815 86.4554 24.4815 88.1495C24.4815 98.5411 32.937 106.997 43.3336 106.997H58.8832V103.992L48.3303 93.4386C46.4193 91.5277 46.4193 88.4268 48.3303 86.5108L56.8109 78.0352C57.7286 77.1176 58.974 76.6033 60.2698 76.6033C61.5706 76.6033 62.816 77.1176 63.7336 78.0352L64.8782 79.1797V76.9613C64.8782 74.2537 67.0714 72.0604 69.779 72.0604H81.7639C84.4664 72.0604 86.6597 74.2537 86.6597 76.9613V85.1243C88.5857 83.5764 91.4042 83.6974 93.1891 85.4823L101.665 93.9579C102.582 94.8806 103.102 96.126 103.102 97.4218C103.102 98.7226 102.582 99.968 101.665 100.886L95.5538 106.997H106.666C117.058 106.997 125.513 98.5411 125.513 88.1495C125.513 86.4554 125.287 84.7713 124.833 83.1276C124.324 81.2671 124.949 79.2756 126.441 78.0503ZM84.295 104.405L91.2782 97.4218L89.7252 95.8739L85.2277 100.371C83.8261 101.773 81.7185 102.192 79.8882 101.435C78.058 100.674 76.8681 98.889 76.8681 96.9075V81.8571H74.6748V91.0033C74.6748 92.9848 73.4798 94.7697 71.6496 95.531C69.8193 96.2873 67.7118 95.8688 66.3151 94.4671L60.2698 88.4268L58.7218 89.9747L67.2479 98.5008C68.1655 99.4184 68.6798 100.664 68.6798 101.965V140.082H82.858V107.869C82.858 106.568 83.3773 105.323 84.295 104.405Z" fill="black"/>
<path d="M170.824 73.776H158.8V62.976H197.536V73.776H185.224V111H170.824V73.776ZM200.062 78.6C200.83 77.88 202.102 77.088 203.878 76.224C205.654 75.36 207.646 74.64 209.854 74.064C212.11 73.44 214.222 73.128 216.19 73.128C221.566 73.128 225.19 73.896 227.062 75.432V84.72C226.102 84.432 224.494 84.192 222.238 84C220.03 83.808 217.99 83.712 216.118 83.712C214.582 83.712 213.598 83.76 213.166 83.856V111H200.062V78.6ZM248.837 72.912C254.837 72.912 259.229 74.856 262.013 78.744C264.845 82.584 266.237 88.44 266.189 96.312H243.365C244.517 99.672 247.565 101.352 252.509 101.352C254.477 101.352 257.189 100.704 260.645 99.408L262.445 98.832V109.704C258.317 111.288 253.829 112.08 248.981 112.08C245.189 112.08 241.829 111.312 238.901 109.776C235.973 108.24 233.693 106.056 232.061 103.224C230.429 100.392 229.613 97.128 229.613 93.432C229.613 86.952 231.269 81.912 234.581 78.312C237.893 74.712 242.645 72.912 248.837 72.912ZM248.189 82.56C246.941 82.56 245.813 83.064 244.805 84.072C243.845 85.032 243.197 86.544 242.861 88.608H253.301C253.013 86.4 252.461 84.84 251.645 83.928C250.877 83.016 249.725 82.56 248.189 82.56ZM289.759 72.912C295.759 72.912 300.151 74.856 302.935 78.744C305.767 82.584 307.159 88.44 307.111 96.312H284.287C285.439 99.672 288.487 101.352 293.431 101.352C295.399 101.352 298.111 100.704 301.567 99.408L303.367 98.832V109.704C299.239 111.288 294.751 112.08 289.903 112.08C286.111 112.08 282.751 111.312 279.823 109.776C276.895 108.24 274.615 106.056 272.983 103.224C271.351 100.392 270.535 97.128 270.535 93.432C270.535 86.952 272.191 81.912 275.503 78.312C278.815 74.712 283.567 72.912 289.759 72.912ZM289.111 82.56C287.863 82.56 286.735 83.064 285.727 84.072C284.767 85.032 284.119 86.544 283.783 88.608H294.223C293.935 86.4 293.383 84.84 292.567 83.928C291.799 83.016 290.647 82.56 289.111 82.56ZM323.121 73.776H311.097V62.976H349.833V73.776H337.521V111H323.121V73.776ZM367.667 112.08C354.803 112.08 348.371 105.528 348.371 92.424C348.371 85.464 349.955 80.472 353.123 77.448C356.291 74.424 361.139 72.912 367.667 72.912C374.147 72.912 379.019 74.448 382.283 77.52C385.547 80.544 387.179 85.512 387.179 92.424C387.179 98.952 385.499 103.872 382.139 107.184C378.827 110.448 374.003 112.08 367.667 112.08ZM367.667 101.856C369.683 101.856 371.267 101.088 372.419 99.552C373.619 98.016 374.219 95.64 374.219 92.424C374.219 88.776 373.667 86.304 372.563 85.008C371.459 83.664 369.827 82.992 367.667 82.992C366.179 82.992 364.979 83.256 364.067 83.784C363.203 84.264 362.531 85.2 362.051 86.592C361.571 87.936 361.331 89.88 361.331 92.424C361.331 95.736 361.859 98.136 362.915 99.624C363.971 101.112 365.555 101.856 367.667 101.856ZM412.137 72.912C418.425 72.912 423.201 74.424 426.465 77.448C429.729 80.472 431.361 85.584 431.361 92.784C431.361 96.576 430.713 99.936 429.417 102.864C428.169 105.744 426.345 108 423.945 109.632C421.593 111.264 418.833 112.08 415.665 112.08C413.937 112.08 412.329 111.984 410.841 111.792C409.353 111.648 407.889 111.12 406.449 110.208V122.88H393.633V82.56C393.633 79.488 395.313 77.112 398.673 75.432C402.081 73.752 406.569 72.912 412.137 72.912ZM411.129 101.856C412.809 101.856 414.153 101.592 415.161 101.064C416.217 100.536 417.009 99.576 417.537 98.184C418.113 96.792 418.401 94.824 418.401 92.28C418.401 89.256 417.873 87.072 416.817 85.728C415.761 84.384 414.009 83.712 411.561 83.712C409.545 83.712 408.177 83.904 407.457 84.288C406.785 84.624 406.449 85.128 406.449 85.8V100.776C407.073 101.112 407.817 101.376 408.681 101.568C409.593 101.76 410.409 101.856 411.129 101.856ZM448.947 112.08C446.691 112.08 444.723 111.864 443.043 111.432C441.363 111 439.395 110.376 437.139 109.56V98.472C438.531 99.624 440.379 100.68 442.683 101.64C444.987 102.6 447.339 103.08 449.739 103.08C451.035 103.08 451.875 102.912 452.259 102.576C452.691 102.24 452.907 101.76 452.907 101.136C452.907 100.368 452.235 99.744 450.891 99.264C449.547 98.736 447.699 98.28 445.347 97.896C442.947 97.512 440.907 96.384 439.227 94.512C437.595 92.64 436.779 90.024 436.779 86.664C436.779 83.544 437.571 81 439.155 79.032C440.787 77.016 442.803 75.6 445.203 74.784C447.651 73.92 450.123 73.512 452.619 73.56C455.787 73.704 458.283 74.04 460.107 74.568C461.979 75.096 463.659 75.864 465.147 76.872L465.219 86.592C464.883 86.4 464.019 85.92 462.627 85.152C461.283 84.384 459.939 83.784 458.595 83.352C457.251 82.92 455.931 82.704 454.635 82.704C453.003 82.704 451.899 82.92 451.323 83.352C450.747 83.784 450.459 84.384 450.459 85.152C450.459 86.112 450.843 86.808 451.611 87.24C452.379 87.624 453.651 88.056 455.427 88.536C457.779 89.064 459.651 89.616 461.043 90.192C462.483 90.768 463.755 91.824 464.859 93.36C465.963 94.896 466.515 97.08 466.515 99.912C466.371 104.232 464.691 107.352 461.475 109.272C458.307 111.144 454.131 112.08 448.947 112.08Z" fill="black"/>
</svg>
