<svg width="50" height="47" viewBox="0 0 50 47" fill="none" xmlns="http://www.w3.org/2000/svg">
<path d="M34.5044 0.0227661C31.4743 0.0227661 29.0092 2.4893 29.0092 5.52122C29.0092 5.92445 29.054 6.31745 29.1367 6.6963L22.0842 10.2251C21.0757 9.05819 19.5871 8.31744 17.9278 8.31744C14.8976 8.31744 12.4325 10.784 12.4325 13.8159C12.4325 16.8478 14.8976 19.3143 17.9278 19.3143C18.3584 19.3143 18.7771 19.2629 19.1794 19.1688L22.5547 24.2357C21.43 25.2432 20.7207 26.7057 20.7207 28.3315C20.7207 28.6436 20.7483 28.9495 20.7984 29.2475L10.7648 30.9209C10.0917 28.6457 7.98492 26.9803 5.49549 26.9803C2.46532 26.9803 0 29.4467 0 32.4785C0 35.5107 2.46532 37.9772 5.49549 37.9772C8.12593 37.9772 10.3296 36.118 10.8655 33.644L21.9518 31.7949C22.9601 33.0354 24.4968 33.8298 26.2159 33.8298C29.2463 33.8298 31.7118 31.3632 31.7118 28.3315C31.7118 25.2997 29.2463 22.8331 26.2159 22.8331C25.7853 22.8331 25.3667 22.8847 24.9646 22.9787L21.5892 17.9117C22.7139 16.9041 23.4232 15.4416 23.4232 13.8159C23.4232 13.4127 23.3783 13.0198 23.2956 12.6411L30.3483 9.11219C31.3566 10.2792 32.8453 11.0199 34.5044 11.0199C37.5347 11.0199 40 8.55327 40 5.52122C40 2.4893 37.5347 0.0227661 34.5044 0.0227661ZM5.49549 35.2747C3.95542 35.2747 2.70263 34.0205 2.70263 32.4785C2.70263 30.937 3.95556 29.6827 5.49549 29.6827C7.03542 29.6827 8.28822 30.937 8.28822 32.4785C8.28822 34.0203 7.03542 35.2747 5.49549 35.2747ZM29.0093 28.3315C29.0093 29.8731 27.7562 31.1273 26.216 31.1273C24.676 31.1273 23.4233 29.8733 23.4233 28.3315C23.4233 26.7899 24.6761 25.5356 26.216 25.5356C27.7562 25.5356 29.0093 26.7899 29.0093 28.3315ZM15.1351 13.8159C15.1351 12.2742 16.3879 11.0199 17.9278 11.0199C19.4677 11.0199 20.7205 12.2742 20.7205 13.8159C20.7205 15.3576 19.4677 16.6119 17.9278 16.6119C16.3879 16.6119 15.1351 15.3576 15.1351 13.8159ZM34.5044 8.31744C32.9644 8.31744 31.7118 7.06303 31.7118 5.52122C31.7118 3.97953 32.9646 2.72526 34.5044 2.72526C36.0446 2.72526 37.2974 3.9794 37.2974 5.52122C37.2975 7.0629 36.0446 8.31744 34.5044 8.31744Z" fill="black"/>
<path d="M35.9 34.4397L34.5 35.9151L39 40.6577L49 30.1186L47.6 28.6432L39 37.7068L35.9 34.4397ZM48 36.4421C48 41.0793 44.4 44.8733 40 44.8733C35.6 44.8733 32 41.0793 32 36.4421C32 31.8049 35.6 28.0108 40 28.0108C40.8 28.0108 41.5 28.1162 42.2 28.327L43.8 26.6407C42.6 26.2192 41.3 25.903 40 25.903C34.5 25.903 30 30.6456 30 36.4421C30 42.2386 34.5 46.9811 40 46.9811C45.5 46.9811 50 42.2386 50 36.4421H48Z" fill="#0DB894"/>
</svg>
