<svg width="1152" height="700" viewBox="0 0 1152 700" fill="none" xmlns="http://www.w3.org/2000/svg">
<rect width="1152" height="700" fill="#F4FAF9"/>
<g opacity="0.6">
<g clip-path="url(#clip0)">
<path d="M477.441 288.96C482.486 267.358 476.603 243.724 459.762 226.882C438.508 205.633 406.428 201.825 381.284 215.438C353.136 178.593 308.751 154.812 258.8 154.812C182.715 154.812 119.517 209.982 107.011 282.496C65.2352 295.945 35 335.116 35 381.364C35 438.726 81.4995 485.225 138.862 485.225H430.04C487.402 485.225 533.902 438.726 533.902 381.364C533.902 341.085 510.959 306.185 477.441 288.96Z" fill="#89D47F"/>
<path d="M322.662 465.345L315.041 449.081C304.073 425.666 308.76 397.912 326.805 379.395L347.583 358.077C364.726 340.485 389.793 333.097 413.734 338.581L442.253 345.104C452.118 347.366 462.477 345.182 470.593 339.13L492.085 323.109C518.631 303.315 555.215 304.02 580.988 324.816L611.36 349.329C634.985 368.395 641.824 401.51 627.684 428.376L607.478 466.778C601.509 478.121 589.745 485.226 576.923 485.226H353.928C340.533 485.226 328.343 477.476 322.662 465.345Z" fill="#9CA9BA"/>
<path d="M503.149 485.226C439.401 442.896 434.874 385.287 451.912 345.914C448.703 346.098 445.453 345.837 442.253 345.104L413.734 338.581C389.793 333.097 364.726 340.49 347.583 358.077L326.805 379.395C308.76 397.912 304.073 425.671 315.041 449.081L322.662 465.345C328.343 477.476 340.529 485.226 353.928 485.226C353.928 485.226 503.9 485.725 503.149 485.226Z" fill="#8B97A5"/>
<path d="M378.391 407.96C376.143 407.96 373.891 407.104 372.179 405.387C368.745 401.954 368.745 396.387 372.179 392.954L388.617 376.52C392.046 373.087 397.612 373.087 401.045 376.52C404.474 379.954 404.474 385.515 401.045 388.949L384.607 405.387C382.89 407.099 380.643 407.96 378.391 407.96Z" fill="#9CA9BA"/>
<path d="M555.137 390.153C552.889 390.153 550.637 389.297 548.921 387.58C545.487 384.147 545.487 378.58 548.921 375.152L563.189 360.883C566.622 357.45 572.189 357.45 575.617 360.883C579.051 364.316 579.051 369.878 575.617 373.311L561.349 387.58C559.637 389.297 557.385 390.153 555.137 390.153Z" fill="#8B97A5"/>
<path d="M555.705 442.086C553.453 442.086 551.205 441.225 549.488 439.513C546.055 436.075 546.055 430.514 549.488 427.08L576.817 399.756C580.246 396.323 585.812 396.323 589.245 399.756C592.678 403.19 592.678 408.751 589.245 412.185L561.917 439.513C560.205 441.225 557.953 442.086 555.705 442.086Z" fill="#8B97A5"/>
<path d="M216.238 314.38C177.95 281.947 171.436 203.395 214.04 161.422C158.976 178.122 116.958 224.823 107.011 282.501C64.7866 296.092 34.3499 335.963 35.009 382.861C35.8147 439.857 83.2116 485.226 140.212 485.226H262.481C195.039 451.475 196.915 389.622 221.525 347.618C227.947 336.654 225.933 322.592 216.238 314.38Z" fill="#5EC783"/>
<path d="M351.039 164.467C328.174 187.327 319.829 219.59 316.821 242.149C314.89 256.674 327.249 269.034 341.774 267.102C364.333 264.094 396.596 255.749 419.457 232.884C442.322 210.019 450.671 177.755 453.674 155.201C455.611 140.677 443.247 128.312 428.722 130.249C406.168 133.252 373.904 141.601 351.039 164.467Z" fill="#8EE2CF"/>
<path d="M363.229 229.483C360.977 229.483 358.73 228.627 357.013 226.91C353.58 223.477 353.58 217.91 357.013 214.482L401.054 170.436C404.488 167.007 410.054 167.007 413.483 170.436C416.916 173.869 416.916 179.435 413.483 182.869L369.441 226.91C367.725 228.627 365.477 229.483 363.229 229.483Z" fill="#6FCE91"/>
<path d="M87.9587 341.955C110.819 364.82 143.083 373.17 165.641 376.173C180.166 378.109 192.526 365.745 190.594 351.22C187.591 328.666 179.241 296.403 156.376 273.538C133.511 250.672 101.248 242.323 78.6936 239.32C64.1687 237.388 51.8045 249.748 53.7409 264.273C56.7438 286.831 65.0934 319.094 87.9587 341.955Z" fill="#8EE2CF"/>
<path d="M144.186 338.558C141.938 338.558 139.69 337.698 137.974 335.986L93.9277 291.944C90.499 288.506 90.499 282.945 93.9277 279.511C97.3609 276.083 102.927 276.083 106.361 279.511L150.402 323.553C153.835 326.986 153.835 332.552 150.402 335.986C148.685 337.698 146.438 338.558 144.186 338.558Z" fill="#6FCE91"/>
<path d="M221.703 217.549C221.703 222.241 217.899 226.045 213.207 226.045C208.519 226.045 204.715 222.241 204.715 217.549C204.715 212.857 208.519 209.053 213.207 209.053C217.899 209.053 221.703 212.857 221.703 217.549Z" fill="#5EC783"/>
<path d="M325.116 332.772C325.116 337.46 321.317 341.264 316.625 341.264C311.932 341.264 308.128 337.46 308.128 332.772C308.128 328.08 311.932 324.276 316.625 324.276C321.317 324.276 325.116 328.08 325.116 332.772Z" fill="#5EC783"/>
<path d="M196.65 433.223C196.65 437.915 192.85 441.72 188.158 441.72C183.466 441.72 179.662 437.915 179.662 433.223C179.662 428.531 183.466 424.732 188.158 424.732C192.85 424.732 196.65 428.531 196.65 433.223Z" fill="#89D47F"/>
</g>
</g>
<path fill-rule="evenodd" clip-rule="evenodd" d="M231.659 295.304C236.021 297.935 240.307 299.206 242.32 298.687C247.365 297.386 247.829 278.916 243.925 271.634C240.021 264.353 219.953 261.179 218.941 275.606C218.59 280.613 220.691 285.082 223.795 288.728L218.229 314.689H234.397L231.659 295.304Z" fill="#B28B67"/>
<path fill-rule="evenodd" clip-rule="evenodd" d="M245.451 274.904C245.291 273.96 244.899 272.912 244.583 272.019C244.176 270.868 243.56 269.83 242.882 268.852C241.605 267.01 240.074 265.347 238.383 263.967C235.294 261.446 231.363 259.992 227.496 260.464C225.544 260.702 223.649 261.447 222.037 262.688C220.579 263.808 219.178 265.458 217.291 265.576C215.237 265.705 213.355 263.892 211.709 262.772C209.852 261.509 207.877 260.589 205.707 260.231C202.072 259.632 198.657 260.861 196.152 263.846C193.486 267.022 191.549 271.679 193.299 275.887C193.625 276.669 194.043 277.329 194.644 277.876C195.195 278.377 196.037 278.91 196.26 279.711C196.497 280.562 195.789 281.66 195.514 282.428C195.12 283.529 194.797 284.684 194.911 285.88C195.1 287.844 196.334 289.72 197.637 291.011C198.962 292.325 200.594 293.078 202.336 293.425C203.5 293.657 204.689 293.785 205.871 293.698C206.458 293.655 206.976 293.492 207.545 293.362C208.098 293.236 208.407 293.383 208.877 293.686C211.057 295.097 213.401 295.642 215.918 295.433C218.042 295.256 220.491 294.74 222.224 293.284C224.149 291.666 224.11 289.435 223.658 287.052C224.137 287.29 225.465 287.437 224.672 286.488C224.357 286.113 223.764 285.96 223.36 285.739C222.891 285.482 222.414 285.149 222.05 284.73C220.578 283.035 222.064 279.587 223.915 279.018C226.663 278.174 227.279 282.064 229.241 283.071C230.369 283.649 231.55 282.858 232.395 282.051C233.527 280.969 234.299 279.536 234.965 278.078C235.514 276.877 236.025 275.659 236.584 274.464C236.846 273.906 237.75 272.328 237.296 271.697C239.265 271.304 241.458 272.123 243.153 273.197C243.854 273.641 244.388 274.13 244.762 274.914C244.842 275.082 245.017 275.581 245.236 275.601C245.643 275.639 245.491 275.141 245.451 274.904Z" fill="#191847"/>
<path fill-rule="evenodd" clip-rule="evenodd" d="M183.704 399.63C174.868 399.63 167.704 406.793 167.704 415.63V467.223C167.704 476.059 174.868 483.223 183.704 483.223H250.733C259.569 483.223 266.733 476.059 266.733 467.223V415.63C266.733 406.793 259.569 399.63 250.733 399.63H183.704ZM190.567 418.506C188.357 418.506 186.567 420.297 186.567 422.506V460.347C186.567 462.556 188.357 464.347 190.567 464.347H243.87C246.079 464.347 247.87 462.556 247.87 460.347V422.506C247.87 420.297 246.079 418.506 243.87 418.506H190.567Z" fill="#C5CFD6"/>
<path fill-rule="evenodd" clip-rule="evenodd" d="M333.533 479.852C320.251 463.622 311.264 451.589 306.572 443.755C298.539 430.34 291.964 418.403 289.889 413.844C284.941 402.97 301.28 397.879 304.978 402.951C310.574 410.627 322.527 434.781 340.836 475.415L333.533 479.852Z" fill="#B28B67"/>
<path fill-rule="evenodd" clip-rule="evenodd" d="M306.316 475.133L281.597 412.868C276.311 401.517 301.841 394.056 305.727 399.339C314.548 411.331 335.513 458.64 338.141 462.213L306.316 475.133Z" fill="#01725A"/>
<path fill-rule="evenodd" clip-rule="evenodd" d="M240.482 462.645C245.297 455.616 262.81 431.97 272.349 422.187C275.09 419.376 277.765 416.677 280.295 414.163C287.814 406.688 302.79 419.253 295.284 426.061C276.592 443.015 249.32 465.902 247.041 467.942C243.848 470.802 237.456 467.062 240.482 462.645Z" fill="#B28B67"/>
<path fill-rule="evenodd" clip-rule="evenodd" d="M244.029 460.321C243.312 459.394 241.971 459.166 241.088 459.936C240.061 460.831 238.854 461.982 238.371 462.819C237.46 464.399 236.237 467.732 236.237 467.732C238.068 468.79 269.143 486.743 269.143 486.743C269.143 486.743 272.874 483.241 270.305 481.306C267.737 479.371 266.067 478.042 266.067 478.042L254.906 462.655C254.575 462.199 253.933 462.106 253.487 462.45L251.393 464.063C251.393 464.063 248.145 463.78 246.546 462.856C245.737 462.388 244.778 461.291 244.029 460.321Z" fill="#E4E4E4"/>
<path fill-rule="evenodd" clip-rule="evenodd" d="M330.341 476.952C329.258 476.507 327.981 476.981 327.601 478.089C327.159 479.379 326.689 480.979 326.689 481.946C326.689 483.769 327.296 487.268 327.296 487.268C329.41 487.268 365.292 487.268 365.292 487.268C365.292 487.268 366.773 482.368 363.582 481.977C360.391 481.587 358.28 481.272 358.28 481.272L340.927 473.53C340.413 473.301 339.81 473.541 339.595 474.063L338.588 476.508C338.588 476.508 335.634 477.887 333.787 477.887C332.853 477.887 331.475 477.416 330.341 476.952Z" fill="#E4E4E4"/>
<path fill-rule="evenodd" clip-rule="evenodd" d="M272.703 415.978C272.703 415.978 241.886 410.954 231.42 409.107C211.531 405.598 205.731 394.888 209.16 371.52L245.805 371.52C253.079 373.622 306.592 397.521 306.592 397.521C313.01 400.71 311.815 410.111 310.642 413.208C310.57 413.398 278.18 468.872 278.18 468.872L248.203 449.762L272.759 418.23C272.759 418.23 273.732 416.269 272.703 415.978Z" fill="#0DB894"/>
<path fill-rule="evenodd" clip-rule="evenodd" d="M174.709 400.916C176.683 396.909 186.546 345.328 186.546 345.328L201.298 345.384C201.298 345.384 184.445 400.023 183.406 402.6C182.056 405.948 184.349 410.812 185.904 414.11C186.144 414.621 186.367 415.094 186.556 415.517C184.399 416.484 183.362 415.316 182.27 414.085C181.035 412.694 179.73 411.223 176.656 412.654C175.468 413.207 174.344 413.861 173.246 414.499C169.453 416.705 165.969 418.732 161.229 415.805C160.478 415.341 159.655 413.595 161.644 412.229C166.601 408.828 173.744 402.876 174.709 400.916ZM298.948 380.818L279.864 362.189L273.526 373.164L293.37 384.872C298.346 392.715 301.268 396.104 302.137 395.039C302.87 394.14 302.534 393.156 302.225 392.249C301.984 391.542 301.759 390.883 302.068 390.348C302.773 389.127 306.757 389.826 310.51 390.652C314.262 391.477 313.394 389.633 312.596 388.67C309.05 385.806 304.5 383.189 298.948 380.818Z" fill="#B28B67"/>
<path fill-rule="evenodd" clip-rule="evenodd" d="M231.496 303.452L237.322 302.453C246.498 334.913 293.647 357.04 296.541 369.175C297.603 373.625 294.402 375.874 296.056 377.23L288.484 382.777C287.202 381.28 284.466 384.018 278.751 382.102C273.037 380.187 231.496 341.889 231.496 303.452Z" fill="#7AA342"/>
<path fill-rule="evenodd" clip-rule="evenodd" d="M222.438 296.766C220.234 296.612 218.323 298.274 218.169 300.477L217.984 303.126C207.021 311.568 179.85 336.796 172.769 383.759C172.025 388.692 173.37 391.334 174.445 393.446C175.18 394.89 175.789 396.085 175.516 397.596L185.425 400.333C185.425 399.218 186.674 398.369 188.285 397.275C190.628 395.683 193.737 393.571 194.887 389.361C195.976 385.371 197.572 380.386 199.478 374.841C199.658 382.185 201.05 388.938 204.082 394.532C211.645 408.487 255.353 393.183 259.92 378.946C262.356 371.349 258.899 364.971 254.326 356.536C248.521 345.829 240.919 331.806 241.295 307.767L241.69 302.123C241.844 299.92 240.182 298.008 237.978 297.854L222.438 296.766Z" fill="#AADE62"/>
<path fill-rule="evenodd" clip-rule="evenodd" d="M421.549 252.764C417.18 255.398 412.887 256.67 410.872 256.151C405.82 254.848 405.355 236.364 409.265 229.077C413.174 221.79 433.272 218.614 434.285 233.052C434.637 238.063 432.533 242.535 429.424 246.184L434.999 272.165H418.807L421.549 252.764Z" fill="#B28B67"/>
<path fill-rule="evenodd" clip-rule="evenodd" d="M410.322 226.251C410.464 225.371 410.183 224.939 413.723 222.458C417.263 219.977 422.979 217.052 428.737 218.325C436.208 219.977 439.175 224.906 442.056 227.302C444.654 229.461 447.26 229.713 448.804 232.393C450.348 235.074 451.17 242.784 449.827 245.85C447.975 250.078 444.321 251.217 441.655 252.435C437.081 254.525 430.617 252.318 430.46 251.953C429.249 249.125 422.728 241.149 418.807 237.797C415.923 235.333 409.656 230.384 410.322 226.251Z" fill="#5C63AB"/>
<mask id="mask0" mask-type="alpha" maskUnits="userSpaceOnUse" x="410" y="218" width="41" height="36">
<path fill-rule="evenodd" clip-rule="evenodd" d="M410.322 226.251C410.464 225.371 410.183 224.939 413.723 222.458C417.263 219.977 422.979 217.052 428.737 218.325C436.208 219.977 439.175 224.906 442.056 227.302C444.654 229.461 447.26 229.713 448.804 232.393C450.348 235.074 451.17 242.784 449.827 245.85C447.975 250.078 444.321 251.217 441.655 252.435C437.081 254.525 430.617 252.318 430.46 251.953C429.249 249.125 422.728 241.149 418.807 237.797C415.923 235.333 409.656 230.384 410.322 226.251Z" fill="white"/>
</mask>
<g mask="url(#mask0)">
<path fill-rule="evenodd" clip-rule="evenodd" d="M432.547 246.678C440.289 237.129 442.111 225.613 442.111 225.613L444.443 227.088C444.443 227.088 441.575 239.673 432.547 246.678ZM429.601 251.925C442.131 240.915 445.119 228.543 445.119 228.543L447.817 229.338C447.817 229.338 444.099 243.174 429.601 251.925Z" fill="black" fill-opacity="0.2"/>
</g>
<path fill-rule="evenodd" clip-rule="evenodd" d="M445.771 329.136L420.42 412.175L408.14 482.794H398.511L411.488 329.136H445.771Z" fill="#997659"/>
<path fill-rule="evenodd" clip-rule="evenodd" d="M454.84 329.136C453.119 374.729 455.145 398.246 455.53 402.389C455.916 406.531 461.193 433.39 473.686 484.184L463.425 480.654C443.682 434.068 436.954 409.856 434.689 403.739C432.425 397.621 426.411 372.754 416.647 329.136H454.84Z" fill="#B28B67"/>
<path fill-rule="evenodd" clip-rule="evenodd" d="M471.085 480.128C472.169 479.682 473.447 480.157 473.826 481.265C474.268 482.557 474.739 484.159 474.739 485.127C474.739 486.953 474.132 490.456 474.132 490.456C472.018 490.456 436.136 490.456 436.136 490.456C436.136 490.456 434.655 485.55 437.846 485.159C441.037 484.768 443.147 484.452 443.147 484.452L460.5 476.701C461.015 476.471 461.618 476.712 461.832 477.234L462.84 479.682C462.84 479.682 465.794 481.063 467.641 481.063C468.575 481.063 469.952 480.593 471.085 480.128Z" fill="#E4E4E4"/>
<path fill-rule="evenodd" clip-rule="evenodd" d="M407.76 480.128C408.844 479.682 410.122 480.157 410.502 481.265C410.944 482.557 411.414 484.159 411.414 485.127C411.414 486.953 410.807 490.456 410.807 490.456C408.693 490.456 372.811 490.456 372.811 490.456C372.811 490.456 371.33 485.55 374.521 485.159C377.712 484.768 379.823 484.452 379.823 484.452L397.175 476.701C397.69 476.471 398.293 476.712 398.508 477.234L399.515 479.682C399.515 479.682 402.469 481.063 404.316 481.063C405.25 481.063 406.627 480.593 407.76 480.128Z" fill="#E4E4E4"/>
<path fill-rule="evenodd" clip-rule="evenodd" d="M449.139 329.136L438.361 371.444H405.438L410.347 329.136H449.139Z" fill="#7AA342"/>
<path fill-rule="evenodd" clip-rule="evenodd" d="M455.202 329.136C460.522 345.114 457.223 371.444 457.223 371.444H423.627L414.389 329.136H455.202Z" fill="#AADE62"/>
<path fill-rule="evenodd" clip-rule="evenodd" d="M352.722 261.875L379.112 265.904L374.157 277.565L352.842 268.765C343.574 269.51 339.104 269.216 339.433 267.881C339.709 266.756 340.699 266.432 341.61 266.133C342.32 265.901 342.983 265.684 343.224 265.116C343.775 263.818 340.816 261.058 337.895 258.559C334.975 256.06 336.972 255.644 338.222 255.702C342.649 256.81 347.482 258.868 352.722 261.875ZM368.498 328.774L387.613 310.157L393.958 321.12L374.082 332.822C369.097 340.659 366.17 344.045 365.3 342.981C364.566 342.084 364.903 341.1 365.213 340.194C365.454 339.488 365.68 338.829 365.371 338.295C364.665 337.075 360.674 337.775 356.916 338.6C353.158 339.426 354.028 337.583 354.827 336.621C358.38 333.759 362.936 331.143 368.498 328.774Z" fill="#B28B67"/>
<path fill-rule="evenodd" clip-rule="evenodd" d="M414.802 263.436C406.233 286.668 391.778 305.585 369.868 326.217L380.537 335.291C406.286 321.396 419.768 313.302 423.94 291.904C424.987 286.533 423.927 270.032 423.779 261.292L414.802 263.436Z" fill="#01725A"/>
<path fill-rule="evenodd" clip-rule="evenodd" d="M457.36 330.844L405.916 338.074C405.916 338.074 415.917 282.404 413.509 262.519C413.427 261.843 414.507 260.48 415.08 260.558C421.372 261.414 427.853 257.462 427.853 257.462C442.801 275.327 450.406 298.841 457.36 330.844Z" fill="#F2F2F2"/>
<path fill-rule="evenodd" clip-rule="evenodd" d="M419.148 289.147C415.948 324.679 420.277 352.79 438.015 350.297L465.445 346.442C465.694 316.605 448.549 277.692 435.062 258.745C434.547 258.022 433.477 256.672 431.445 256.957L423.474 258.078C423.472 258.089 423.47 258.1 423.468 258.111C421.073 258.467 418.443 258.926 415.596 259.423C400.939 261.98 380.502 265.546 356.358 261.389L355.544 275.359C378.279 285.817 400.852 293.22 419.148 289.147Z" fill="#0DB894"/>
<defs>
<clipPath id="clip0">
</clipPath>
</defs>
</svg>
