<svg width="48" height="51" viewBox="0 0 48 51" fill="none" xmlns="http://www.w3.org/2000/svg">
<path d="M33.9 38.4397L32.5 39.9151L37 44.6577L47 34.1186L45.6 32.6432L37 41.7068L33.9 38.4397ZM46 40.4421C46 45.0793 42.4 48.8733 38 48.8733C33.6 48.8733 30 45.0793 30 40.4421C30 35.8049 33.6 32.0108 38 32.0108C38.8 32.0108 39.5 32.1162 40.2 32.327L41.8 30.6407C40.6 30.2192 39.3 29.903 38 29.903C32.5 29.903 28 34.6456 28 40.4421C28 46.2386 32.5 50.9811 38 50.9811C43.5 50.9811 48 46.2386 48 40.4421H46Z" fill="#0DB894"/>
<path d="M14.635 15.3675C14.1475 14.88 13.355 14.8775 12.865 15.365L8.75002 19.4825L7.13502 17.865C6.64752 17.3775 5.85502 17.3775 5.36752 17.865C4.88002 18.3525 4.88002 19.145 5.36752 19.6325L7.86752 22.1325C8.11002 22.3775 8.43002 22.5 8.75002 22.5C9.07002 22.5 9.39002 22.3775 9.63502 22.135L14.635 17.135C15.1225 16.6475 15.1225 15.855 14.635 15.3675Z" fill="black"/>
<path d="M14.635 25.3675C14.1475 24.88 13.355 24.8775 12.865 25.365L8.75002 29.4825L7.13502 27.8675C6.64752 27.38 5.85502 27.38 5.36752 27.8675C4.88002 28.355 4.88002 29.1475 5.36752 29.635L7.86752 32.135C8.11002 32.3775 8.43002 32.5 8.75002 32.5C9.07002 32.5 9.39002 32.3775 9.63502 32.135L14.635 27.135C15.1225 26.6475 15.1225 25.855 14.635 25.3675Z" fill="black"/>
<path d="M23.75 17.5H18.75C18.06 17.5 17.5 18.06 17.5 18.75C17.5 19.44 18.06 20 18.75 20H23.75C24.44 20 25 19.44 25 18.75C25 18.06 24.44 17.5 23.75 17.5Z" fill="black"/>
<path d="M23.75 27.5H18.75C18.06 27.5 17.5 28.06 17.5 28.75C17.5 29.44 18.06 30 18.75 30H23.75C24.44 30 25 29.44 25 28.75C25 28.06 24.44 27.5 23.75 27.5Z" fill="black"/>
<path d="M27.5 5H22.5V3.75C22.5 3.06 21.94 2.5 21.25 2.5H18.5375C18.02 1.045 16.63 0 15 0C13.37 0 11.98 1.045 11.4625 2.5H8.75C8.06 2.5 7.5 3.06 7.5 3.75V5H2.5C1.1225 5 0 6.1225 0 7.5V37.5C0 38.8775 1.1225 40 2.5 40H27.5C28.8775 40 30 38.8775 30 37.5V7.5C30 6.1225 28.8775 5 27.5 5ZM10 5H12.5C13.19 5 13.75 4.44 13.75 3.75C13.75 3.06 14.31 2.5 15 2.5C15.69 2.5 16.25 3.06 16.25 3.75C16.25 4.44 16.81 5 17.5 5H20V7.5H10V5ZM27.5 37.5H2.5V7.5H7.5V8.75C7.5 9.44 8.06 10 8.75 10H21.25C21.94 10 22.5 9.44 22.5 8.75V7.5H27.5V37.5Z" fill="black"/>
</svg>
